<svg xmlns="http://www.w3.org/2000/svg" viewBox="0 0 512 512">
  <rect width="512" height="512" rx="112" fill="#141518"/>
  <path d="M198 145c86-52 190-63 288-24" fill="none" stroke="#8B8E94" stroke-width="8" stroke-linecap="round" stroke-dasharray="28 32" opacity=".75"/>
  <path d="M82 150c70 0 120 26 158 73" fill="none" stroke="#F5C518" stroke-width="7" stroke-linecap="round"/>
  <path d="M174 326c82-68 178-79 257-44" fill="none" stroke="#3D4F99" stroke-width="7" stroke-linecap="round"/>
  <path d="M250 253c56 24 117 23 174 4" fill="none" stroke="#F2F1ED" stroke-width="6" stroke-linecap="round" opacity=".82"/>
  <path d="M238 223c18 31 39 54 64 70M417 258c-38 20-66 51-86 94" fill="none" stroke="#8B8E94" stroke-width="6" stroke-linecap="round" opacity=".82"/>
  <circle cx="82" cy="150" r="45" fill="#F5C518"/>
  <circle cx="174" cy="326" r="44" fill="#3D4F99"/>
  <circle cx="430" cy="278" r="49" fill="#F2F1ED"/>
  <circle cx="240" cy="223" r="12" fill="#141518" stroke="#F2F1ED" stroke-width="6"/>
  <circle cx="304" cy="293" r="12" fill="#141518" stroke="#F2F1ED" stroke-width="6" opacity=".84"/>
  <circle cx="419" cy="258" r="12" fill="#141518" stroke="#F2F1ED" stroke-width="6" opacity=".84"/>
</svg>
